PathFileType	4	(X/Y/Z)	C:/Users/beibeiliu/ov580/test_trc/User3\sequence.29_training_dense_right.trc
DataRate	CameraRate	NumFrames	NumMarkers	Units	OrigDataRate	OrigDataStartFrame	OrigNumFrames
120	120	16	19	mm	120	163	260
Frame#	Time	ThumbCMC			ThumbMCP			ThumbIP			ThumbTip			IndexMCP			IndexPIP			IndexTip			MiddleMCP			MiddlePIP			MiddleTip			RingMCP			RingPIP			RingTip			PinkyMCP			PinkyPIP			PinkyTip			BackHand1			BackHand2			BackHand3	
		X0	Y0	Z0	X1	Y1	Z1	X2	Y2	Z2	X3	Y3	Z3	X4	Y4	Z4	X5	Y5	Z5	X6	Y6	Z6	X7	Y7	Z7	X8	Y8	Z8	X9	Y9	Z9	X10	Y10	Z10	X11	Y11	Z11	X12	Y12	Z12	X13	Y13	Z13	X14	Y14	Z14	X15	Y15	Z15	X16	Y16	Z16	X17	Y17	Z17	X18	Y18	Z18	
162	1.35	147.786	4.20261	28.0466	128.359	12.6725	3.22628	106.216	3.90525	-14.805	87.4165	-15.8283	-12.2813	100.973	-25.8865	-21.2084	71.0079	-16.0153	-9.35211	87.1855	-0.290627	15.2379	88.7564	-39.1307	-9.55354	71.6309	-22.8839	11.6774	110.092	-18.8427	29.3582	89.2276	-48.3329	7.86848	78.6498	-32.1358	30.4989	112.808	-27.3338	38.7988	92.2772	-65.2784	23.1727	85.316	-44.4909	42.5868	115.723	-44.1408	49.5868	144.051	-61.415	18.0279	165.831	-54.753	44.1199	158.666	-23.9347	14.9227	
163	1.35833	155.849	5.79592	27.8168	136.261	9.15604	-0.404126	112.265	0.586765	-17.4658	93.3127	-16.4579	-11.5467	103.507	-21.0612	-29.469	77.8335	-9.62937	-19.517	92.2847	1.86225	11.1453	94.9405	-34.3805	-15.8663	74.902	-19.62	6.42214	108.799	-14.4571	24.6502	89.7887	-45.7039	5.17781	81.0857	-28.33	28.7245	111.937	-26.1106	38.9447	90.9669	-56.269	20.4416	86.3676	-36.3655	38.015	117.451	-38.5616	48.4979	146.147	-59.7794	18.027	164.004	-56.721	42.7057	164.071	-27.2297	18.9997	
164	1.36667	160	0.858676	25.5623	144.617	8.58281	-2.59917	121.902	1.80889	-25.209	102.061	-10.81	-21.0351	112.463	-26.7895	-31.6604	85.1975	-5.45396	-26.9111	96.9225	5.64352	-0.693448	97.9673	-32.9195	-19.8684	81.774	-13.344	-1.34307	115.325	-16.1414	20.6495	92.602	-42.5901	0.922602	85.0202	-23.6153	22.0149	117.423	-23.5931	32.8968	92.2094	-54.637	16.842	85.821	-34.2559	35.9375	118.985	-35.1876	45.2329	146.384	-63.6089	18.8357	164.89	-57.9184	47.7479	167.554	-30.7012	18.6599	
165	1.375	167.455	-1.66914	24.7537	152.388	6.85716	-4.78646	133.74	5.61152	-32.9516	111.325	-4.80734	-37.4095	121.938	-26.8062	-35.366	94.0889	-6.20487	-32.2342	109.178	6.43294	-7.90833	104.893	-38.435	-20.6993	87.9824	-13.5306	-5.04696	118.962	-16.6283	17.059	96.5254	-43.5597	-1.60818	89.1614	-19.5363	12.2749	120.075	-23.207	29.5875	95.214	-47.788	11.4893	90.1896	-28.4228	25.6801	119.577	-31.7848	42.4271	150.84	-62.6741	20.3185	163.262	-59.8822	46.3704	171.447	-34.8511	17.0029	
166	1.38333	170.079	-4.23213	18.5097	156.664	2.99194	-7.52455	143.201	7.13334	-31.6729	124.378	0.828507	-44.8339	126.056	-30.3905	-36.6226	102.202	-7.06565	-34.8796	119.94	4.68127	-10.8887	110.285	-35.3193	-28.7489	95.0254	-10.0855	-15.1175	127.104	-13.6514	10.1615	102.722	-43.0184	-7.49193	92.9688	-20.0825	10.3945	122.295	-20.7693	24.7309	102.096	-50.6752	8.41063	92.4945	-27.1792	22.0674	119.491	-27.3643	33.4817	150.388	-62.0881	16.5219	163.933	-59.1249	44.5677	176.59	-37.826	15.2829	
167	1.39167	176.106	-1.26909	17.6201	162.159	3.59758	-8.0041	147.266	3.97949	-38.8888	130.621	2.37935	-49.6061	135.231	-27.5039	-44.5349	110.833	-7.04928	-44.2383	126.813	0.739357	-12.2543	118.79	-36.5765	-34.1147	98.893	-13.7952	-23.7744	127.127	-14.7593	7.68985	107.903	-43.9838	-11.9343	97.6989	-17.4682	3.05544	124.864	-21.2037	20.8087	102.878	-51.032	5.25696	97.0662	-26.4551	14.0131	122.059	-28.3853	31.4	153.023	-63.0779	15.5731	167.994	-60.1903	45.3466	179.946	-40.1916	14.4925	
168	1.4	179.288	0.902483	17.1241	162.574	2.01376	-9.73098	150.685	3.96116	-35.1207	135.335	1.20057	-52.5879	143.56	-28.6567	-45.5222	115.371	-9.18406	-46.3257	128.895	0.485196	-19.1077	126.226	-39.8478	-37.6798	103.047	-16.3958	-32.5993	125.213	-13.9842	0.453626	111.104	-46.0284	-15.766	99.9835	-19.5409	-0.0022065	130.23	-19.9479	14.9328	103.198	-49.3163	0.73741	102.887	-25.2029	10.5891	125.593	-27.0071	30.1239	158.437	-64.2854	15.0136	171.393	-58.9327	39.6997	183.167	-38.5494	15.9096	
169	1.40833	180.666	-0.647464	15.3912	166.096	4.92198	-12.7956	153.919	6.54326	-37.553	137.811	6.14002	-59.4373	144.413	-34.1235	-50.8157	122.796	-15.0103	-57.6222	129.992	0.791308	-29.8243	132.172	-42.0057	-43.2028	107.339	-16.9508	-38.9444	127.324	-12.9161	-4.97477	117.662	-46.0391	-21.5718	103.082	-20.8479	-8.36175	131.57	-19.9517	10.0898	107.696	-49.6242	-4.13639	102.143	-28.4266	6.72641	131.261	-27.9906	24.5989	161.035	-65.7597	11.0859	175.76	-54.8688	41.2342	186.188	-36.9339	13.8165	
170	1.41667	180.126	-3.23804	11.531	166.388	6.6583	-14.4895	153.696	7.67096	-43.4809	138.119	3.963	-56.3587	156.536	-37.1523	-51.1777	130.845	-24.6022	-66.2475	131.156	-3.01924	-35.5984	136.847	-47.1098	-46.5426	112.626	-22.0219	-47.3265	126.374	-15.3557	-11.3636	124.284	-47.418	-27.6872	105.014	-27.1303	-19.065	129.873	-21.8351	7.44005	115.081	-52.6612	-8.96332	107.631	-28.07	2.33516	131.311	-31.9677	24.0173	163.465	-64.6028	9.07105	177.905	-57.4147	38.212	188.73	-37.9066	13.7767	
171	1.425	182.862	-1.0565	9.93785	166.581	3.1659	-12.3377	152.459	3.28557	-41.0886	138.442	2.87262	-58.1212	163.747	-39.891	-53.9071	137.572	-30.2028	-71.6966	129.151	-5.99128	-48.4749	142.825	-49.1847	-52.1884	116.153	-30.6887	-54.0659	122.81	-14.8555	-18.3166	128.015	-53.1605	-28.8803	109.38	-27.8596	-23.2729	130.723	-23.419	4.46173	118.15	-54.3771	-13.9305	107.368	-32.9003	-3.89822	132.643	-31.5285	20.196	169.602	-63.4944	8.76806	178.256	-59.4541	36.5274	195.367	-36.2603	11.2907	
172	1.43333	183.251	-3.33108	11.8291	167.342	3.74454	-13.0509	153.325	6.9602	-42.3441	138.206	1.64319	-59.5053	170.468	-39.0844	-52.6478	145.454	-31.5077	-76.2317	126.989	-7.35972	-59.2999	151.57	-49.2718	-53.7634	123.518	-30.9013	-62.7259	119.07	-15.1673	-29.238	131.714	-52.3368	-34.0069	110.031	-34.0398	-29.5696	128.386	-20.1212	-3.11869	121.656	-59.8954	-12.0886	108.443	-33.9755	-4.67391	132.888	-31.2527	14.7922	171.195	-64.5321	7.36597	181.007	-59.0488	35.5989	195.099	-39.7649	12.9066	
173	1.44167	184.792	-4.26785	14.9382	168.455	2.58987	-11.2284	154.561	5.78184	-40.7731	137.185	0.75904	-58.679	171.501	-39.8416	-54.946	148.63	-36.9578	-76.2649	124.346	-14.655	-67.604	153.642	-53.9984	-52.5315	128.334	-37.9488	-68.7149	115.539	-14.0804	-38.7035	135.741	-54.4569	-33.9809	113.258	-33.5355	-34.8024	126.061	-19.7608	-5.11402	123.907	-60.0415	-13.2809	110.635	-35.3433	-11.7904	130.476	-27.3583	13.2199	172.471	-62.9247	9.97272	182.978	-61.2965	38.4667	198.482	-36.5707	10.5939	
174	1.45	186.613	-2.53668	16.4793	168.174	2.379	-12.9539	154.311	5.85002	-35.3585	136.085	1.92598	-55.7219	171.994	-39.8766	-53.7024	151.459	-36.2837	-76.8769	123.704	-15.7547	-73.7987	156.67	-55.6737	-49.896	133.61	-45.3276	-70.4342	111.689	-14.5452	-53.5179	137.474	-56.6724	-34.188	111.231	-34.8862	-35.4262	119.013	-19.2742	-7.21952	125.7	-59.1448	-15.0855	110.278	-37.0343	-12.6564	130.061	-27.9124	10.8572	174.65	-65.3706	8.78408	181.371	-62.4796	39.9472	197.588	-37.8687	13.6271	
175	1.45833	185.658	-2.54273	15.8067	167.161	4.27403	-11.8139	152.474	7.71813	-37.2644	134.756	0.444578	-49.3172	171.636	-38.3939	-50.7585	152.175	-37.326	-77.2139	125.272	-16.6918	-80.8728	159.931	-53.3348	-50.7678	133.445	-44.9436	-75.4094	107.498	-24.8493	-64.2192	136.405	-57.0301	-35.4895	111.939	-38.1688	-39.7824	111.733	-19.3414	-16.2768	123.82	-59.0313	-17.1606	111.136	-35.9777	-13.8193	122.656	-25.8005	12.2893	173.749	-66.4881	11.7182	183.173	-59.0199	39.087	197.831	-39.8579	11.7072	
176	1.46667	184.844	-1.73307	17.2311	166.334	6.24462	-9.94244	148.911	10.0817	-36.339	130.502	0.957774	-47.7736	168.845	-38.0167	-51.6875	153.399	-34.3911	-78.5955	128.8	-21.1727	-87.3232	158.059	-54.2373	-52.66	136.853	-47.803	-76.5976	105.574	-29.5727	-76.055	137.524	-53.8457	-37.4895	113.397	-40.572	-43.4657	104.43	-16.6979	-16.7579	125.548	-58.7576	-15.4189	106.004	-39.8771	-11.5282	116.992	-25.4283	12.2372	171.447	-64.0837	6.88908	184.454	-60.1339	38.868	195.718	-36.2146	11.6601	
177	1.475	184.613	2.29304	17.6152	163.331	12.074	-8.31787	143.91	8.59182	-32.7264	124.81	9.60329	-47.6162	169.053	-31.4719	-54.5076	148.568	-33.7682	-78.4082	127.132	-23.8347	-90.8845	157.534	-51.5643	-48.9958	137.65	-45.474	-78.9138	104.339	-31.5957	-88.2459	133.199	-55.2668	-32.5554	107.621	-40.3794	-40.0454	97.9983	-15.2	-19.0333	123.36	-59.4241	-11.6513	106.635	-38.4199	-14.2604	117.787	-20.098	9.73626	174.801	-61.4748	9.97104	184.747	-60.2917	38.3419	198.248	-34.139	11.5334	
